# Blender 4.1.1
# www.blender.org
mtllib corridor_turn_right.mtl
o Cube
v -14.250000 -5.000000 -5.750000
v -14.250000 2.200000 -5.750000
v -4.250000 -5.000000 -5.749999
v -4.250000 2.200000 -5.749999
v 5.000000 -5.000000 5.000000
v 5.000000 2.200000 5.000000
v 5.000000 -5.000000 -5.000000
v 5.000000 2.200000 -5.000000
v -13.625000 3.600000 -5.750000
v -11.750000 5.000000 -5.750000
v -10.500000 5.000000 -5.750000
v -9.250000 5.000000 -5.750000
v -8.000000 5.000000 -5.750000
v -6.750000 5.000000 -5.750000
v -4.875000 3.600000 -5.749999
v 5.000000 3.600000 -4.375000
v 5.000000 5.000000 -2.500000
v 5.000000 5.000000 -1.250000
v 5.000000 5.000000 0.000000
v 5.000000 5.000000 1.250000
v 5.000000 5.000000 2.500000
v 5.000000 3.600000 4.375000
v 0.000000 -5.000000 -5.000000
v 0.000000 2.200000 -5.000000
v 0.000000 -5.000000 5.000000
v 0.000000 2.200000 5.000000
v 0.000000 3.600000 -4.375000
v 0.000000 5.000000 -2.500000
v 0.000000 5.000000 -1.250000
v 0.000000 5.000000 0.000000
v 0.000000 5.000000 1.250000
v 0.000000 5.000000 2.500000
v 0.000000 3.600000 4.375000
v -5.000000 5.000000 -2.500000
v -4.250000 -5.000000 -4.250000
v -14.250000 2.200000 -0.250000
v -4.250000 2.200000 -4.250000
v -14.250000 -5.000000 -0.250000
v -4.875000 3.600000 -4.250000
v -6.750000 5.000000 -4.250000
v -8.000000 5.000000 -4.250000
v -9.250000 5.000000 -4.250000
v -10.500000 5.000000 -4.250000
v -11.750000 5.000000 -0.250000
v -13.625000 3.600000 -0.250000
v -2.125000 2.200000 -4.625000
v -7.125000 -5.000000 4.375000
v -2.437500 3.600000 -4.312500
v -3.375000 5.000000 -3.375000
v -4.000000 5.000000 -2.750000
v -4.625000 5.000000 -2.125000
v -5.250000 5.000000 -1.500000
v -5.875000 5.000000 3.125000
v -6.812500 3.600000 4.062500
v -2.125000 -5.000000 -4.625000
v -7.125000 2.200000 4.375000
vn -0.0000 -0.0000 1.0000
vn 1.0000 -0.0000 -0.0000
vn -0.0000 1.0000 -0.0000
vn 0.9131 -0.4077 -0.0000
vn -0.9131 -0.4077 -0.0000
vn -0.5983 -0.8013 -0.0000
vn -0.0000 -1.0000 -0.0000
vn 0.5983 -0.8013 -0.0000
vn -0.0000 -0.8013 -0.5983
vn -0.0000 -0.8013 0.5983
vn -0.0000 -0.4077 0.9131
vn -0.0000 -0.4077 -0.9131
vn -0.0000 -0.0000 -1.0000
vn 0.1738 -0.0000 0.9848
vn -1.0000 -0.0000 -0.0000
vn 0.4033 -0.6280 -0.6656
vn -0.1253 -0.4258 0.8961
vn 0.0952 -0.0789 0.9923
vn 0.5205 -0.2649 -0.8117
vn 0.5445 -0.0000 -0.8388
vn 0.0874 -0.0000 -0.9962
vn 0.0635 -0.3232 -0.9442
vn 0.0908 -0.3071 0.9473
vn -0.0959 -0.7212 0.6860
vn -0.0174 -0.7057 -0.7083
vt 0.375000 0.375000
vt 0.375000 0.500000
vt 0.555000 0.500000
vt 0.555000 0.375000
vt 0.375000 0.981250
vt 0.375000 1.000000
vt 0.555000 1.000000
vt 0.555000 0.981250
vt 0.250000 0.500000
vt 0.250000 0.750000
vt 0.375000 0.750000
vt 0.851955 0.738532
vt 0.847660 0.758315
vt 0.871389 0.758989
vt 0.873194 0.738869
vt 0.847660 0.491685
vt 0.851955 0.511468
vt 0.873194 0.511131
vt 0.871389 0.491011
vt 0.856250 0.562500
vt 0.875000 0.562500
vt 0.856250 0.593750
vt 0.875000 0.593750
vt 0.856250 0.625000
vt 0.875000 0.625000
vt 0.856250 0.656250
vt 0.875000 0.656250
vt 0.856250 0.687500
vt 0.875000 0.687500
vt 0.625000 0.687500
vt 0.590000 0.734375
vt 0.731597 0.736622
vt 0.750000 0.687500
vt 0.625000 0.656250
vt 0.750000 0.656250
vt 0.625000 0.625000
vt 0.750000 0.625000
vt 0.625000 0.593750
vt 0.750000 0.593750
vt 0.625000 0.562500
vt 0.750000 0.562500
vt 0.590000 0.515625
vt 0.731597 0.513378
vt 0.713194 0.495506
vt 0.555000 0.750000
vt 0.713194 0.754494
vt 0.196875 0.500000
vt 0.196875 0.750000
vt 0.375000 0.875000
vt 0.555000 0.875000
vt 0.375000 0.321875
vt 0.555000 0.321875
vt 0.375000 0.250000
vt 0.375000 0.268750
vt 0.555000 0.268750
vt 0.555000 0.250000
vt 0.125000 0.500000
vt 0.125000 0.750000
vt 0.143750 0.750000
vt 0.143750 0.500000
vt 0.803125 0.687500
vt 0.791776 0.737577
vt 0.803125 0.656250
vt 0.803125 0.625000
vt 0.803125 0.593750
vt 0.803125 0.562500
vt 0.791776 0.512423
vt 0.780427 0.493596
vt 0.780427 0.756404
vt 0.375000 0.928125
vt 0.555000 0.928125
s 0
f 23/1/1 7/2/1 8/3/1 24/4/1
f 38/5/2 1/6/2 2/7/2 36/8/2
f 23/9/3 25/10/3 5/11/3 7/2/3
f 45/12/4 36/13/4 2/14/4 9/15/4
f 37/16/5 39/17/5 15/18/5 4/19/5
f 39/17/6 40/20/6 14/21/6 15/18/6
f 40/20/7 41/22/7 13/23/7 14/21/7
f 41/22/7 42/24/7 12/25/7 13/23/7
f 42/24/7 43/26/7 11/27/7 12/25/7
f 43/26/7 44/28/7 10/29/7 11/27/7
f 44/28/8 45/12/8 9/15/8 10/29/8
f 21/30/9 22/31/9 33/32/9 32/33/9
f 20/34/7 21/30/7 32/33/7 31/35/7
f 19/36/7 20/34/7 31/35/7 30/37/7
f 18/38/7 19/36/7 30/37/7 29/39/7
f 17/40/7 18/38/7 29/39/7 28/41/7
f 16/42/10 17/40/10 28/41/10 27/43/10
f 8/3/11 16/42/11 27/43/11 24/44/11
f 22/31/12 6/45/12 26/46/12 33/32/12
f 55/47/3 47/48/3 25/10/3 23/9/3
f 5/11/13 25/49/13 26/50/13 6/45/13
f 55/51/14 23/1/14 24/4/14 46/52/14
f 3/53/15 35/54/15 37/55/15 4/56/15
f 3/57/3 1/58/3 38/59/3 35/60/3
f 53/61/16 54/62/16 45/12/16 44/28/16
f 52/63/7 53/61/7 44/28/7 43/26/7
f 51/64/7 52/63/7 43/26/7 42/24/7
f 50/65/7 51/64/7 42/24/7 41/22/7
f 49/66/7 50/65/7 41/22/7 40/20/7
f 48/67/17 49/66/17 40/20/17 39/17/17
f 46/68/18 48/67/18 39/17/18 37/16/18
f 54/62/19 56/69/19 36/13/19 45/12/19
f 47/70/20 38/5/20 36/8/20 56/71/20
f 25/49/21 47/70/21 56/71/21 26/50/21
f 33/32/22 26/46/22 56/69/22 54/62/22
f 24/44/23 27/43/23 48/67/23 46/68/23
f 27/43/24 28/41/24 49/66/24 48/67/24
f 28/41/7 29/39/7 50/65/7 49/66/7
f 29/39/7 30/37/7 51/64/7 50/65/7
f 30/37/7 31/35/7 52/63/7 51/64/7
f 31/35/7 32/33/7 53/61/7 52/63/7
f 32/33/25 33/32/25 54/62/25 53/61/25
f 35/54/14 55/51/14 46/52/14 37/55/14
f 35/60/3 38/59/3 47/48/3 55/47/3
