# Blender 4.1.1
# www.blender.org
mtllib corridor_straight.mtl
o Cube
v -5.000000 -5.000000 5.000000
v -5.000000 2.200000 5.000000
v -5.000000 -5.000000 -5.000000
v -5.000000 2.200000 -5.000000
v 5.000000 -5.000000 5.000000
v 5.000000 2.200000 5.000000
v 5.000000 -5.000000 -5.000000
v 5.000000 2.200000 -5.000000
v -5.000000 3.600000 4.375000
v -5.000000 5.000000 2.500000
v -5.000000 5.000000 1.250000
v -5.000000 5.000000 0.000000
v -5.000000 5.000000 -1.250000
v -5.000000 5.000000 -2.500000
v -5.000000 3.600000 -4.375000
v 5.000000 3.600000 -4.375000
v 5.000000 5.000000 -2.500000
v 5.000000 5.000000 -1.250000
v 5.000000 5.000000 0.000000
v 5.000000 5.000000 1.250000
v 5.000000 5.000000 2.500000
v 5.000000 3.600000 4.375000
vn -0.0000 -0.0000 1.0000
vn -0.0000 -0.0000 -1.0000
vn -0.0000 1.0000 -0.0000
vn -0.0000 -0.4077 -0.9131
vn -0.0000 -0.4077 0.9131
vn -0.0000 -0.8013 0.5983
vn -0.0000 -1.0000 -0.0000
vn -0.0000 -0.8013 -0.5983
vt 0.375000 0.250000
vt 0.375000 0.500000
vt 0.555000 0.500000
vt 0.555000 0.250000
vt 0.375000 0.750000
vt 0.375000 1.000000
vt 0.555000 1.000000
vt 0.555000 0.750000
vt 0.125000 0.500000
vt 0.125000 0.750000
vt 0.590000 0.734375
vt 0.871389 0.758989
vt 0.873194 0.738869
vt 0.590000 0.515625
vt 0.873194 0.511131
vt 0.871389 0.491011
vt 0.625000 0.562500
vt 0.875000 0.562500
vt 0.625000 0.593750
vt 0.875000 0.593750
vt 0.625000 0.625000
vt 0.875000 0.625000
vt 0.625000 0.656250
vt 0.875000 0.656250
vt 0.625000 0.687500
vt 0.875000 0.687500
s 0
f 3/1/1 7/2/1 8/3/1 4/4/1
f 5/5/2 1/6/2 2/7/2 6/8/2
f 3/9/3 1/10/3 5/5/3 7/2/3
f 22/11/4 6/8/4 2/12/4 9/13/4
f 8/3/5 16/14/5 15/15/5 4/16/5
f 16/14/6 17/17/6 14/18/6 15/15/6
f 17/17/7 18/19/7 13/20/7 14/18/7
f 18/19/7 19/21/7 12/22/7 13/20/7
f 19/21/7 20/23/7 11/24/7 12/22/7
f 20/23/7 21/25/7 10/26/7 11/24/7
f 21/25/8 22/11/8 9/13/8 10/26/8
